# xmcd
#
# Track frame offsets: 
#        150
#        20528
#        37090
#        50825
#        65837
#        81260
#        95517
#        109863
#        128185
#        144159
#        157216
#        173106
#        194430
#        205689
#
# Disc length: 2913 seconds
#
# Revision: 0
# Processed by: cddbd v1.5.2PL0 Copyright (c) Steve Scherf et al.
# Submitted via: ExactAudioCopy v1.0b6
#
DISCID=cf0b5f0e
DTITLE=Various Artist - Mr Music Country Nr 5 2015
DYEAR=2015
DGENRE=Country
TTITLE0=Joe Diffie - John Deere Green
TTITLE1=Brad Paisley - Crushin´It
TTITLE2=Sanne Salomonsen and Marie Bergman - Nonetheless
TTITLE3=Van Zant - My Kind Of Country
TTITLE4=Carrie Underwood - Good Girl
TTITLE5=Chris Young - Who I Am With You
TTITLE6=Pam Tillis - Cleopatra, Queen Of Denial
TTITLE7=Phil Vassar - Carlene
TTITLE8=Crystal Shawanda - You Can Let Go
TTITLE9=Collin Raye - My Kind Of Girl
TTITLE10=Kenny Chesney - Living In Fast Forward
TTITLE11=Patty Loveless - Like Water In To Wine
TTITLE12=Ricky Van Shelton - (I Got) A Hole In My Pocket
TTITLE13=Travis Tritt - The Girl´s Gone Wild
EXTD=
EXTT0=
EXTT1=
EXTT2=
EXTT3=
EXTT4=
EXTT5=
EXTT6=
EXTT7=
EXTT8=
EXTT9=
EXTT10=
EXTT11=
EXTT12=
EXTT13=
PLAYORDER=
